<svg width="40" height="40" viewBox="0 0 40 40" fill="none" xmlns="http://www.w3.org/2000/svg">
  <!-- Central tree (largest) -->
  <path d="M20 5 L20 15" stroke="#4A5D23" stroke-width="2" stroke-linecap="round"/>
  <circle cx="20" cy="5" r="4" fill="#6B8E23"/>
  <circle cx="18" cy="7" r="3" fill="#556B2F"/>
  <circle cx="22" cy="6" r="2.5" fill="#6B8E23"/>

  <!-- Left tree -->
  <path d="M10 12 L10 20" stroke="#5C4033" stroke-width="1.5" stroke-linecap="round"/>
  <circle cx="10" cy="12" r="3" fill="#8FBC8F"/>
  <circle cx="9" cy="13" r="2" fill="#6B8E23"/>
  <circle cx="11" cy="11" r="2" fill="#8FBC8F"/>

  <!-- Right tree -->
  <path d="M30 12 L30 20" stroke="#5C4033" stroke-width="1.5" stroke-linecap="round"/>
  <circle cx="30" cy="12" r="3" fill="#8FBC8F"/>
  <circle cx="29" cy="13" r="2" fill="#6B8E23"/>
  <circle cx="31" cy="11" r="2" fill="#8FBC8F"/>

  <!-- Left-front tree -->
  <path d="M15 18 L15 25" stroke="#4A5D23" stroke-width="1.5" stroke-linecap="round"/>
  <circle cx="15" cy="18" r="3.5" fill="#6B8E23"/>
  <circle cx="14" cy="19" r="2.5" fill="#556B2F"/>
  <circle cx="16" cy="17" r="2" fill="#6B8E23"/>

  <!-- Right-front tree -->
  <path d="M25 18 L25 25" stroke="#4A5D23" stroke-width="1.5" stroke-linecap="round"/>
  <circle cx="25" cy="18" r="3.5" fill="#6B8E23"/>
  <circle cx="24" cy="19" r="2.5" fill="#556B2F"/>
  <circle cx="26" cy="17" r="2" fill="#6B8E23"/>

  <!-- Ground/moss circle -->
  <ellipse cx="20" cy="28" rx="16" ry="4" fill="#8FBC8F" opacity="0.4"/>
  <ellipse cx="20" cy="28" rx="12" ry="3" fill="#6B8E23" opacity="0.3"/>
</svg>
