<svg width="32" height="32" viewBox="0 0 32 32" fill="none" xmlns="http://www.w3.org/2000/svg">
  <!-- Central tree (largest) -->
  <path d="M16 4 L16 12" stroke="#4A5D23" stroke-width="1.5" stroke-linecap="round"/>
  <circle cx="16" cy="4" r="3.2" fill="#6B8E23"/>
  <circle cx="14.4" cy="5.6" r="2.4" fill="#556B2F"/>
  <circle cx="17.6" cy="4.8" r="2" fill="#6B8E23"/>

  <!-- Left tree -->
  <path d="M8 9.6 L8 16" stroke="#5C4033" stroke-width="1.2" stroke-linecap="round"/>
  <circle cx="8" cy="9.6" r="2.4" fill="#8FBC8F"/>
  <circle cx="7.2" cy="10.4" r="1.6" fill="#6B8E23"/>
  <circle cx="8.8" cy="8.8" r="1.6" fill="#8FBC8F"/>

  <!-- Right tree -->
  <path d="M24 9.6 L24 16" stroke="#5C4033" stroke-width="1.2" stroke-linecap="round"/>
  <circle cx="24" cy="9.6" r="2.4" fill="#8FBC8F"/>
  <circle cx="23.2" cy="10.4" r="1.6" fill="#6B8E23"/>
  <circle cx="24.8" cy="8.8" r="1.6" fill="#8FBC8F"/>

  <!-- Left-front tree -->
  <path d="M12 14.4 L12 20" stroke="#4A5D23" stroke-width="1.2" stroke-linecap="round"/>
  <circle cx="12" cy="14.4" r="2.8" fill="#6B8E23"/>
  <circle cx="11.2" cy="15.2" r="2" fill="#556B2F"/>
  <circle cx="12.8" cy="13.6" r="1.6" fill="#6B8E23"/>

  <!-- Right-front tree -->
  <path d="M20 14.4 L20 20" stroke="#4A5D23" stroke-width="1.2" stroke-linecap="round"/>
  <circle cx="20" cy="14.4" r="2.8" fill="#6B8E23"/>
  <circle cx="19.2" cy="15.2" r="2" fill="#556B2F"/>
  <circle cx="20.8" cy="13.6" r="1.6" fill="#6B8E23"/>

  <!-- Ground/moss circle -->
  <ellipse cx="16" cy="22.4" rx="12.8" ry="3.2" fill="#8FBC8F" opacity="0.4"/>
  <ellipse cx="16" cy="22.4" rx="9.6" ry="2.4" fill="#6B8E23" opacity="0.3"/>
</svg>
